<svg xmlns="http://www.w3.org/2000/svg" width="220" height="220" viewBox="0 0 220 220"><defs><style>.a,.b,.f,.g,.h,.i,.j,.l,.o{fill:none;}.a,.b,.e,.g,.j{stroke:#fff;}.a{stroke-linecap:square;}.a,.j{stroke-linejoin:bevel;stroke-width:2px;}.c,.k,.n{fill:#fff;}.c,.d{stroke:#707070;}.d{fill:#ffff37;}.e{fill:#4d4d4d;}.f,.h{stroke:#f3f3f3;}.g,.i{stroke-width:0.5px;}.h{stroke-width:0.2px;}.i{stroke:#c9c9c9;}.k{stroke:#d6d6d6;}.l{stroke:#dbdbdb;stroke-width:0.1px;}.m,.n{stroke:none;}</style></defs><g transform="translate(-229 -465)"><g transform="translate(229 465)"><path class="m" d="M 110 218.5 C 102.6374435424805 218.5 95.27993774414063 217.7583465576172 88.13188171386719 216.295654296875 C 81.16623687744141 214.8702697753906 74.31464385986328 212.743408203125 67.76734924316406 209.9741516113281 C 61.33861923217773 207.2550354003906 55.13796997070313 203.889404296875 49.33767700195313 199.9707946777344 C 43.59208679199219 196.0891418457031 38.18914794921875 191.6312866210938 33.27891159057617 186.7210845947266 C 28.36870574951172 181.8108520507813 23.91085243225098 176.4079132080078 20.02920532226563 170.6623229980469 C 16.11058807373047 164.8620300292969 12.74497032165527 158.661376953125 10.02585315704346 152.2326507568359 C 7.256588459014893 145.6853485107422 5.129735469818115 138.8337707519531 3.704352855682373 131.8681182861328 C 2.241647005081177 124.7200622558594 1.5 117.3625564575195 1.5 110 C 1.5 102.6374435424805 2.241647005081177 95.27993774414063 3.704352855682373 88.13188171386719 C 5.129735469818115 81.16623687744141 7.256588459014893 74.31464385986328 10.02585315704346 67.76734924316406 C 12.74497032165527 61.33861923217773 16.11058807373047 55.13796997070313 20.02920532226563 49.33767700195313 C 23.91085243225098 43.59208679199219 28.36870574951172 38.18914794921875 33.27891159057617 33.27891159057617 C 38.18914794921875 28.36870574951172 43.59208679199219 23.91085243225098 49.33767700195313 20.02920532226563 C 55.13796997070313 16.11058807373047 61.33861923217773 12.74497032165527 67.76734924316406 10.02585315704346 C 74.31464385986328 7.256588459014893 81.16623687744141 5.129735469818115 88.13188171386719 3.704352855682373 C 95.27993774414063 2.241647005081177 102.6374435424805 1.5 110 1.5 C 117.3625564575195 1.5 124.7200622558594 2.241647005081177 131.8681182861328 3.704352855682373 C 138.8337707519531 5.129735469818115 145.6853485107422 7.256588459014893 152.2326507568359 10.02585315704346 C 158.661376953125 12.74497032165527 164.8620300292969 16.11058807373047 170.6623229980469 20.02920532226563 C 176.4079132080078 23.91085243225098 181.8108520507813 28.36870574951172 186.7210845947266 33.27891159057617 C 191.6312866210938 38.18914794921875 196.0891418457031 43.59208679199219 199.9707946777344 49.33767700195313 C 203.889404296875 55.13796997070313 207.2550354003906 61.33861923217773 209.9741516113281 67.76734924316406 C 212.743408203125 74.31464385986328 214.8702697753906 81.16623687744141 216.295654296875 88.13188171386719 C 217.7583465576172 95.27993774414063 218.5 102.6374435424805 218.5 110 C 218.5 117.3625564575195 217.7583465576172 124.7200622558594 216.295654296875 131.8681182861328 C 214.8702697753906 138.8337707519531 212.743408203125 145.6853485107422 209.9741516113281 152.2326507568359 C 207.2550354003906 158.661376953125 203.889404296875 164.8620300292969 199.9707946777344 170.6623229980469 C 196.0891418457031 176.4079132080078 191.6312866210938 181.8108520507813 186.7210845947266 186.7210845947266 C 181.8108520507813 191.6312866210938 176.4079132080078 196.0891418457031 170.6623229980469 199.9707946777344 C 164.8620300292969 203.889404296875 158.661376953125 207.2550354003906 152.2326507568359 209.9741516113281 C 145.6853485107422 212.743408203125 138.8337707519531 214.8702697753906 131.8681182861328 216.295654296875 C 124.7200622558594 217.7583465576172 117.3625564575195 218.5 110 218.5 Z"/><path class="n" d="M 110 3 C 102.7382354736328 3 95.48191070556641 3.731414794921875 88.43258666992188 5.173904418945313 C 81.56396484375 6.579437255859375 74.80776977539063 8.676681518554688 68.35169982910156 11.4073486328125 C 62.01214599609375 14.08876037597656 55.89741516113281 17.40776062011719 50.17738342285156 21.27214050292969 C 44.51087951660156 25.10035705566406 39.18229675292969 29.49685668945313 34.33958435058594 34.33958435058594 C 29.49685668945313 39.18229675292969 25.10035705566406 44.51087951660156 21.27214050292969 50.17738342285156 C 17.40776062011719 55.89741516113281 14.08876037597656 62.01214599609375 11.4073486328125 68.35169982910156 C 8.676681518554688 74.80776977539063 6.579437255859375 81.56396484375 5.173904418945313 88.43258666992188 C 3.731414794921875 95.48191070556641 3 102.7382354736328 3 110 C 3 117.2617645263672 3.731414794921875 124.5180892944336 5.173904418945313 131.5674133300781 C 6.579437255859375 138.43603515625 8.676681518554688 145.1922302246094 11.4073486328125 151.6482849121094 C 14.08876037597656 157.9878540039063 17.40776062011719 164.1025848388672 21.27214050292969 169.8226165771484 C 25.10035705566406 175.4891204833984 29.49685668945313 180.8177032470703 34.33958435058594 185.6604156494141 C 39.18229675292969 190.5031433105469 44.51087951660156 194.8996429443359 50.17738342285156 198.7278594970703 C 55.89741516113281 202.5922393798828 62.01214599609375 205.9112396240234 68.35169982910156 208.5926513671875 C 74.80776977539063 211.3233184814453 81.56396484375 213.4205627441406 88.43258666992188 214.8260955810547 C 95.48191070556641 216.2685852050781 102.7382354736328 217 110 217 C 117.2617645263672 217 124.5180892944336 216.2685852050781 131.5674133300781 214.8260955810547 C 138.43603515625 213.4205627441406 145.1922302246094 211.3233184814453 151.6482849121094 208.5926513671875 C 157.9878540039063 205.9112396240234 164.1025848388672 202.5922393798828 169.8226165771484 198.7278594970703 C 175.4891204833984 194.8996429443359 180.8177032470703 190.5031433105469 185.6604156494141 185.6604156494141 C 190.5031433105469 180.8177032470703 194.8996429443359 175.4891204833984 198.7278594970703 169.8226165771484 C 202.5922393798828 164.1025848388672 205.9112396240234 157.9878540039063 208.5926513671875 151.6482849121094 C 211.3233184814453 145.1922302246094 213.4205627441406 138.43603515625 214.8260955810547 131.5674133300781 C 216.2685852050781 124.5180892944336 217 117.2617645263672 217 110 C 217 102.7382354736328 216.2685852050781 95.48191070556641 214.8260955810547 88.43258666992188 C 213.4205627441406 81.56396484375 211.3233184814453 74.80776977539063 208.5926513671875 68.35169982910156 C 205.9112396240234 62.01214599609375 202.5922393798828 55.89741516113281 198.7278594970703 50.17738342285156 C 194.8996429443359 44.51087951660156 190.5031433105469 39.18229675292969 185.6604156494141 34.33958435058594 C 180.8177032470703 29.49685668945313 175.4891204833984 25.10035705566406 169.8226165771484 21.27214050292969 C 164.1025848388672 17.40776062011719 157.9878540039063 14.08876037597656 151.6482849121094 11.4073486328125 C 145.1922302246094 8.676681518554688 138.43603515625 6.579437255859375 131.5674133300781 5.173904418945313 C 124.5180892944336 3.731414794921875 117.2617645263672 3 110 3 M 110 0 C 170.7513275146484 0 220 49.24867248535156 220 110 C 220 170.7513275146484 170.7513275146484 220 110 220 C 49.24867248535156 220 0 170.7513275146484 0 110 C 0 49.24867248535156 49.24867248535156 0 110 0 Z"/></g><path class="a" d="M2891,3087l35.762,14.222v99.556l-17.637,7.014L2891,3215Z" transform="translate(-2548.762 -2575)"/><path class="b" d="M1.527,0V119.975" transform="translate(328 516.117)"/><line class="b" y2="105" transform="translate(301 524)"/><path class="b" d="M52,0" transform="translate(290 532)"/><path class="b" d="M52,0" transform="translate(290 550)"/><path class="c" d="M2624,3396l16-3.4v14.453L2624,3410Z" transform="translate(-2318 -2846)"/><path class="d" d="M2624,3396l16-2.724v14.8L2624,3410Z" transform="translate(-2318 -2825)"/><path class="c" d="M2624,3396l16-1.58V3410h-16Z" transform="translate(-2318 -2804)"/><path class="e" d="M2624,3393.831l16,.754v17.786l-16-4.2Z" transform="translate(-2318 -2779)"/><path class="c" d="M2624,3396l16-4.457v14.82L2624,3410Z" transform="translate(-2318 -2868)"/><path class="f" d="M313.078,615.518v15.26" transform="translate(-0.159)"/><path class="b" d="M342,506c.272.052,1.335.429,3.2,1.128,8.394,3.138,32.934,13.58,32.934,13.58l.087,4.976" transform="matrix(1, 0.017, -0.017, 1, 9.008, -6.205)"/><path class="g" d="M294,519.2v5.652"/><path class="g" d="M294,519.2v5.652" transform="translate(4 -1.2)"/><path class="g" d="M294,519.2v5.652" transform="translate(12 -3.2)"/><path class="g" d="M294,518.861v5.992" transform="translate(20 -5.2)"/><path class="g" d="M294,518.861v5.992" transform="translate(24 -6.853)"/><path class="g" d="M294,518.861v6.42" transform="translate(28 -7.289)"/><path class="g" d="M294,518.861v5.992" transform="translate(32 -8.853)"/><path class="g" d="M294,518.861v6.42" transform="translate(36 -9.281)"/><path class="g" d="M294,518.861v6.42" transform="translate(40 -10.861)"/><path class="g" d="M294,518.861v6.42" transform="translate(44 -11.861)"/><path class="g" d="M294,518.861v6.42" transform="translate(53 -11.281)"/><path class="g" d="M294.026,518.861V524.5" transform="translate(57 -9.501)"/><path class="g" d="M294.1,518.861v5.21" transform="translate(61 -8.071)"/><path class="g" d="M294.026,518.861v4.94" transform="translate(64.933 -5.801)"/><path class="g" d="M294.026,518.861V524.5" transform="translate(69 -4.861)"/><path class="g" d="M294.026,518.861V524.5" transform="translate(73 -2.861)"/><path class="g" d="M294.026,518.861V524.5" transform="translate(77 -0.861)"/><path class="g" d="M294.026,518.861v5" transform="translate(80.949 0.78)"/><path class="h" d="M3020.328,2998.08l-4.415,7.793" transform="matrix(-0.755, 0.656, -0.656, -0.755, 4556.059, 801.444)"/><path class="b" d="M3060.048,2991v10" transform="translate(-2717 -2489)"/><path class="b" d="M3069,3004.2V2995l-8.865-4.371L3045,2995v9.2" transform="translate(-2717 -2489)"/><path class="h" d="M3024.2,2998.08l-8.289,10.933" transform="translate(-2716.546 -2486.236)"/><path class="h" d="M3021.019,2998.08l-3.83,6.365-1.276,2.122" transform="matrix(-0.342, 0.94, -0.94, -0.342, 4164.486, -1294.615)"/><path class="i" d="M3025.015,2987v22.577" transform="translate(-2717.015 -2489)"/><path class="b" d="M342,512v-6l-52,14v6"/><path class="g" d="M294,519.2v5.652" transform="translate(8 -2.2)"/><path class="g" d="M294,519.2v5.652" transform="translate(16 -4.853)"/><path class="j" d="M2851,3101.222,2905,3087v128l-54-14.222Z" transform="translate(-2561 -2575)"/><g class="k" transform="translate(307 511)"><rect class="m" width="2" height="1"/><rect class="o" x="0.5" y="0.5" width="1"/></g><line class="l" x2="3" transform="translate(306.5 511.5)"/></g></svg>