<svg xmlns="http://www.w3.org/2000/svg" xmlns:xlink="http://www.w3.org/1999/xlink" width="22" height="22" viewBox="0 0 22 22"><defs><style>.a{fill:none;}.b{clip-path:url(#a);}.c{fill:#fff;stroke:#000;stroke-width:0.2px;}</style><clipPath id="a"><path class="a" d="M11,0A11,11,0,1,1,0,11,11,11,0,0,1,11,0Z" transform="translate(92 415)"/></clipPath></defs><g class="b" transform="translate(-92 -415)"><g transform="translate(92 415)"><path d="M20.786,22A1.214,1.214,0,0,0,22,20.786V1.214A1.214,1.214,0,0,0,20.786,0H1.214A1.214,1.214,0,0,0,0,1.214V20.786A1.214,1.214,0,0,0,1.214,22H20.786"/><path class="c" d="M476.735,194.633v-8.52h2.86l.428-3.32h-3.288v-2.12c0-.961.267-1.616,1.646-1.616h1.758v-2.97a23.5,23.5,0,0,0-2.562-.131,4,4,0,0,0-4.27,4.389v2.449H470.44v3.32h2.867v8.52h3.429" transform="translate(-461.556 -172.633)"/></g></g></svg>