<svg xmlns="http://www.w3.org/2000/svg" width="110" height="110" viewBox="0 0 110 110"><defs><style>.a{fill:#f8f8f8;stroke:#1e1e1e;stroke-width:3px;}.b{fill:#242424;}.c{fill:#656565;}.c,.d,.e,.i,.j,.k{stroke:#434343;}.d,.m{fill:none;}.e,.h{fill:#fff;}.e{stroke-linecap:round;}.f{fill:#434343;}.g{fill:#545454;font-size:8px;}.g,.h{font-family:YuGothicUI-Bold, Yu Gothic UI;font-weight:700;letter-spacing:0.12em;}.h{font-size:16px;}.i{fill:#2dfff1;}.i,.j,.k{stroke-width:0.5px;}.j{fill:#34ff2d;}.k{fill:#fc4848;}.l{stroke:none;}</style></defs><g transform="translate(-361 -226)"><g class="a" transform="translate(361 226)"><circle class="l" cx="55" cy="55" r="55"/><circle class="m" cx="55" cy="55" r="53.5"/></g><g transform="translate(4 3)"><path class="b" d="M404,302v9.378h16V302" transform="translate(0 -0.378)"/><path class="c" d="M372,302h80v-8H372Z"/><path class="d" d="M396,318h32" transform="translate(0 -7)"/><path class="e" d="M372,254v40h80V254H372"/><rect class="f" width="16" height="40" transform="translate(372 254)"/><text class="g" transform="translate(389 270)"><tspan x="0" y="0">esign</tspan></text><text class="h" transform="translate(377 271)"><tspan x="0" y="0">D</tspan></text><g class="i" transform="translate(436 258)"><circle class="l" cx="4" cy="4" r="4"/><circle class="m" cx="4" cy="4" r="3.75"/></g><g class="j" transform="translate(436 282)"><circle class="l" cx="4" cy="4" r="4"/><circle class="m" cx="4" cy="4" r="3.75"/></g><g class="k" transform="translate(436 270)"><circle class="l" cx="4" cy="4" r="4"/><circle class="m" cx="4" cy="4" r="3.75"/></g></g></g></svg>