<svg xmlns="http://www.w3.org/2000/svg" width="110" height="110" viewBox="0 0 110 110"><defs><style>.a{fill:#f8f8f8;stroke:#1e1e1e;stroke-width:3px;}.b{fill:#242424;}.c{fill:#656565;}.c,.d,.e{stroke:#434343;}.d,.j{fill:none;}.e,.g{fill:#fff;}.e{stroke-linecap:round;}.f{fill:#0d0d0d;}.g{font-size:9px;font-family:YuGothicUI-Bold, Yu Gothic UI;font-weight:700;letter-spacing:0.12em;}.h{fill:#434343;}.i{stroke:none;}</style></defs><g transform="translate(-358 -226)"><g class="a" transform="translate(358 226)"><circle class="i" cx="55" cy="55" r="55"/><circle class="j" cx="55" cy="55" r="53.5"/></g><g transform="translate(1)"><path class="b" d="M404,302v9.378h16V302" transform="translate(0 -0.378)"/><path class="c" d="M372,302h80v-8H372Z"/><path class="d" d="M396,318h32" transform="translate(0 -7)"/><path class="e" d="M372,254v40h80V254H372"/><rect class="f" width="54" height="11" transform="translate(382 264)"/><text class="g" transform="translate(385 273)"><tspan x="0" y="0">Develop...</tspan></text><g transform="translate(25 12)"><path class="h" d="M416,266v-4l12,4Z" transform="translate(0 3)"/><path class="h" d="M376,266v1h44v-1H376" transform="translate(0 2)"/></g><g transform="translate(9 18)"><path class="h" d="M416,266v-4l12,4Z" transform="translate(0 3)"/><path class="h" d="M376,266v1h44v-1H376" transform="translate(0 2)"/></g></g></g></svg>