<svg xmlns="http://www.w3.org/2000/svg" width="110" height="110" viewBox="0 0 110 110"><defs><style>.a{fill:#f8f8f8;stroke:#1e1e1e;stroke-width:3px;}.b{fill:#242424;}.c,.f,.i,.n,.p{fill:none;}.c{stroke:#707070;}.c,.d,.f,.i{stroke-linecap:round;}.d,.e,.h,.l{fill:#fff;}.d{stroke:#000;stroke-width:0.8px;opacity:0.8;}.e,.f,.n{stroke:#434343;}.e,.f,.i{stroke-width:0.5px;}.g,.k,.q{fill:#434343;}.i{stroke:#fff;}.j{fill:#545454;}.j,.k{font-size:3px;}.j,.k,.m{font-family:YuGothicUI-Bold, Yu Gothic UI;font-weight:700;letter-spacing:0.12em;}.m{fill:#818181;font-size:12px;}.o,.q{stroke:none;}</style></defs><g transform="translate(-358 -226)"><g class="a" transform="translate(358 226)"><circle class="o" cx="55" cy="55" r="55"/><circle class="p" cx="55" cy="55" r="53.5"/></g><g transform="translate(-3 11)"><path class="b" d="M404,302v3.632h8V302" transform="translate(-14 -4.632)"/><path class="c" d="M396,318h20" transform="translate(-12 -17)"/><path class="d" d="M372,254v24h44V254H372" transform="translate(0 19)"/><g class="e" transform="translate(376 278)"><rect class="o" width="30" height="15"/><rect class="p" x="0.25" y="0.25" width="29.5" height="14.5"/></g><path class="f" d="M392,287v-2h2" transform="translate(469.489 774.54) rotate(-135)"/><rect class="g" width="11" height="22" transform="translate(404 274)"/><rect class="h" width="7" height="2" transform="translate(406 280)"/><rect class="h" width="7" height="2" transform="translate(406 284)"/><rect class="h" width="7" height="2" transform="translate(406 288)"/><rect class="h" width="7" height="2" transform="translate(406 292)"/><g transform="translate(3)"><path class="i" d="M409.5,276.356l1.5-1.495"/><path class="i" d="M0,1.495,1.5,0" transform="translate(409.505 276.359) rotate(-90)"/></g><text class="j" transform="translate(384 289)"><tspan x="0" y="0">new site!!</tspan></text><text class="k" transform="translate(378 285)"><tspan x="0" y="0">welcome</tspan></text><g class="l" transform="translate(374 275)"><path class="o" d="M 18.5 1.5 L 0.5 1.5 L 0.5 0.5 L 18.5 0.5 L 18.5 1.5 Z"/><path class="q" d="M 0 0 L 19 0 L 19 2 L 0 2 L 0 0 Z"/></g></g><text class="m" transform="translate(410 272)"><tspan x="0" y="0">www.</tspan></text><g transform="translate(13 -288.5)"><g class="n" transform="translate(385 536)"><circle class="o" cx="27.25" cy="27.25" r="27.25"/><circle class="p" cx="27.25" cy="27.25" r="26.75"/></g><path class="n" d="M4351.558,5836h47.427" transform="translate(-3962.984 -5260)"/><path class="n" d="M4351.558,5836h48" transform="translate(-3963.558 -5284)"/><path class="n" d="M4370,5810.233s-17.078,2.822-17.078,25.819S4370,5863.047,4370,5863.047" transform="translate(4781.999 6400.052) rotate(180)"/><path class="n" d="M4378,5808v53.819" transform="translate(-3966 -5272)"/><path class="n" d="M4351.558,5836h52.915" transform="translate(-3966 -5272)"/><path class="n" d="M4370,5810.233s-17.078,2.822-17.078,25.819S4370,5863.047,4370,5863.047" transform="translate(-3958 -5273.228)"/></g></g></svg>