<svg xmlns="http://www.w3.org/2000/svg" xmlns:xlink="http://www.w3.org/1999/xlink" width="24.672" height="18.221" viewBox="0 0 24.672 18.221"><defs><style>.a{fill:#e3e3e3;stroke:#707070;stroke-width:0.1px;}.b{opacity:0.1;}.c{stroke:#000;stroke-width:0.5px;}.d{fill:url(#a);}</style><linearGradient id="a" y1="0.5" x2="1" y2="0.5" gradientUnits="objectBoundingBox"><stop offset="0" stop-opacity="0.102"/><stop offset="1" stop-opacity="0.2"/></linearGradient></defs><g transform="translate(0.001 -0.843)"><path class="a" d="M22.654,19H1.742A1.5,1.5,0,0,1,.249,17.51V2.4A1.5,1.5,0,0,1,1.742.909H22.654A1.5,1.5,0,0,1,24.148,2.4V17.51A1.485,1.485,0,0,1,22.654,19Z" transform="translate(0 0)"/><path class="b" d="M29.816,57.709l9.717-7.816.07-.417L29.584,42.264l-.023,15.1Z" transform="translate(-28 -38.896)"/><path class="c" d="M1.749,23.814a1.491,1.491,0,0,1-1.5-1.5V7.121c0-.836.664-.986,1.5-.986s1.5.171,1.5.986V23.814Z" transform="translate(0 -5)"/><path class="d" d="M14.689,32.316,1.58,19.1l.69.28L11.4,25.956l9.813-7.2V31.1a1.222,1.222,0,0,1-1.233,1.216Z" transform="translate(1 -15.405)"/><path class="c" d="M224.428,23.813h-1.5V7.078c0-.836.664-.943,1.5-.943s1.5.107,1.5.943V22.335a1.486,1.486,0,0,1-1.5,1.478Z" transform="translate(-201.507 -5)"/><path class="c" d="M11.234,10.2.856,2.669A1.386,1.386,0,0,1,.523.747,1.423,1.423,0,0,1,2.485.453l8.769,6.376L20.082.374A1.365,1.365,0,0,1,22,.688a1.365,1.365,0,0,1-.314,1.923L14.269,8l-3.034,2.2Z" transform="translate(1 1)"/></g></svg>