<svg xmlns="http://www.w3.org/2000/svg" width="220" height="220" viewBox="0 0 220 220"><defs><style>.a,.c,.d,.e,.i{fill:none;}.a,.d{stroke:#fff;}.b,.f,.h{fill:#fff;}.b{font-size:40px;font-family:YuGothicUI-Bold, Yu Gothic UI;font-weight:700;letter-spacing:0.3em;}.c{stroke:#fefefe;}.c,.d{stroke-width:2px;}.e{stroke:#fff8f8;}.g,.h{stroke:none;}</style></defs><g transform="translate(-565 -462)"><g transform="translate(565 462)"><path class="g" d="M 110 218.5 C 102.6374435424805 218.5 95.27993774414063 217.7583465576172 88.13188171386719 216.295654296875 C 81.16623687744141 214.8702697753906 74.31464385986328 212.743408203125 67.76734924316406 209.9741516113281 C 61.33861923217773 207.2550354003906 55.13796997070313 203.889404296875 49.33767700195313 199.9707946777344 C 43.59208679199219 196.0891418457031 38.18914794921875 191.6312866210938 33.27891159057617 186.7210845947266 C 28.36870574951172 181.8108520507813 23.91085243225098 176.4079132080078 20.02920532226563 170.6623229980469 C 16.11058807373047 164.8620300292969 12.74497032165527 158.661376953125 10.02585315704346 152.2326507568359 C 7.256588459014893 145.6853485107422 5.129735469818115 138.8337707519531 3.704352855682373 131.8681182861328 C 2.241647005081177 124.7200622558594 1.5 117.3625564575195 1.5 110 C 1.5 102.6374435424805 2.241647005081177 95.27993774414063 3.704352855682373 88.13188171386719 C 5.129735469818115 81.16623687744141 7.256588459014893 74.31464385986328 10.02585315704346 67.76734924316406 C 12.74497032165527 61.33861923217773 16.11058807373047 55.13796997070313 20.02920532226563 49.33767700195313 C 23.91085243225098 43.59208679199219 28.36870574951172 38.18914794921875 33.27891159057617 33.27891159057617 C 38.18914794921875 28.36870574951172 43.59208679199219 23.91085243225098 49.33767700195313 20.02920532226563 C 55.13796997070313 16.11058807373047 61.33861923217773 12.74497032165527 67.76734924316406 10.02585315704346 C 74.31464385986328 7.256588459014893 81.16623687744141 5.129735469818115 88.13188171386719 3.704352855682373 C 95.27993774414063 2.241647005081177 102.6374435424805 1.5 110 1.5 C 117.3625564575195 1.5 124.7200622558594 2.241647005081177 131.8681182861328 3.704352855682373 C 138.8337707519531 5.129735469818115 145.6853485107422 7.256588459014893 152.2326507568359 10.02585315704346 C 158.661376953125 12.74497032165527 164.8620300292969 16.11058807373047 170.6623229980469 20.02920532226563 C 176.4079132080078 23.91085243225098 181.8108520507813 28.36870574951172 186.7210845947266 33.27891159057617 C 191.6312866210938 38.18914794921875 196.0891418457031 43.59208679199219 199.9707946777344 49.33767700195313 C 203.889404296875 55.13796997070313 207.2550354003906 61.33861923217773 209.9741516113281 67.76734924316406 C 212.743408203125 74.31464385986328 214.8702697753906 81.16623687744141 216.295654296875 88.13188171386719 C 217.7583465576172 95.27993774414063 218.5 102.6374435424805 218.5 110 C 218.5 117.3625564575195 217.7583465576172 124.7200622558594 216.295654296875 131.8681182861328 C 214.8702697753906 138.8337707519531 212.743408203125 145.6853485107422 209.9741516113281 152.2326507568359 C 207.2550354003906 158.661376953125 203.889404296875 164.8620300292969 199.9707946777344 170.6623229980469 C 196.0891418457031 176.4079132080078 191.6312866210938 181.8108520507813 186.7210845947266 186.7210845947266 C 181.8108520507813 191.6312866210938 176.4079132080078 196.0891418457031 170.6623229980469 199.9707946777344 C 164.8620300292969 203.889404296875 158.661376953125 207.2550354003906 152.2326507568359 209.9741516113281 C 145.6853485107422 212.743408203125 138.8337707519531 214.8702697753906 131.8681182861328 216.295654296875 C 124.7200622558594 217.7583465576172 117.3625564575195 218.5 110 218.5 Z"/><path class="h" d="M 110 3 C 102.7382354736328 3 95.48191070556641 3.731414794921875 88.43258666992188 5.173904418945313 C 81.56396484375 6.579437255859375 74.80776977539063 8.676681518554688 68.35169982910156 11.4073486328125 C 62.01214599609375 14.08876037597656 55.89741516113281 17.40776062011719 50.17738342285156 21.27214050292969 C 44.51087951660156 25.10035705566406 39.18229675292969 29.49685668945313 34.33958435058594 34.33958435058594 C 29.49685668945313 39.18229675292969 25.10035705566406 44.51087951660156 21.27214050292969 50.17738342285156 C 17.40776062011719 55.89741516113281 14.08876037597656 62.01214599609375 11.4073486328125 68.35169982910156 C 8.676681518554688 74.80776977539063 6.579437255859375 81.56396484375 5.173904418945313 88.43258666992188 C 3.731414794921875 95.48191070556641 3 102.7382354736328 3 110 C 3 117.2617645263672 3.731414794921875 124.5180892944336 5.173904418945313 131.5674133300781 C 6.579437255859375 138.43603515625 8.676681518554688 145.1922302246094 11.4073486328125 151.6482849121094 C 14.08876037597656 157.9878540039063 17.40776062011719 164.1025848388672 21.27214050292969 169.8226165771484 C 25.10035705566406 175.4891204833984 29.49685668945313 180.8177032470703 34.33958435058594 185.6604156494141 C 39.18229675292969 190.5031433105469 44.51087951660156 194.8996429443359 50.17738342285156 198.7278594970703 C 55.89741516113281 202.5922393798828 62.01214599609375 205.9112396240234 68.35169982910156 208.5926513671875 C 74.80776977539063 211.3233184814453 81.56396484375 213.4205627441406 88.43258666992188 214.8260955810547 C 95.48191070556641 216.2685852050781 102.7382354736328 217 110 217 C 117.2617645263672 217 124.5180892944336 216.2685852050781 131.5674133300781 214.8260955810547 C 138.43603515625 213.4205627441406 145.1922302246094 211.3233184814453 151.6482849121094 208.5926513671875 C 157.9878540039063 205.9112396240234 164.1025848388672 202.5922393798828 169.8226165771484 198.7278594970703 C 175.4891204833984 194.8996429443359 180.8177032470703 190.5031433105469 185.6604156494141 185.6604156494141 C 190.5031433105469 180.8177032470703 194.8996429443359 175.4891204833984 198.7278594970703 169.8226165771484 C 202.5922393798828 164.1025848388672 205.9112396240234 157.9878540039063 208.5926513671875 151.6482849121094 C 211.3233184814453 145.1922302246094 213.4205627441406 138.43603515625 214.8260955810547 131.5674133300781 C 216.2685852050781 124.5180892944336 217 117.2617645263672 217 110 C 217 102.7382354736328 216.2685852050781 95.48191070556641 214.8260955810547 88.43258666992188 C 213.4205627441406 81.56396484375 211.3233184814453 74.80776977539063 208.5926513671875 68.35169982910156 C 205.9112396240234 62.01214599609375 202.5922393798828 55.89741516113281 198.7278594970703 50.17738342285156 C 194.8996429443359 44.51087951660156 190.5031433105469 39.18229675292969 185.6604156494141 34.33958435058594 C 180.8177032470703 29.49685668945313 175.4891204833984 25.10035705566406 169.8226165771484 21.27214050292969 C 164.1025848388672 17.40776062011719 157.9878540039063 14.08876037597656 151.6482849121094 11.4073486328125 C 145.1922302246094 8.676681518554688 138.43603515625 6.579437255859375 131.5674133300781 5.173904418945313 C 124.5180892944336 3.731414794921875 117.2617645263672 3 110 3 M 110 0 C 170.7513275146484 0 220 49.24867248535156 220 110 C 220 170.7513275146484 170.7513275146484 220 110 220 C 49.24867248535156 220 0 170.7513275146484 0 110 C 0 49.24867248535156 49.24867248535156 0 110 0 Z"/></g><g transform="translate(-9 28)"><path class="a" d="M3195,3131h56" transform="translate(-2539 -2543)"/><path class="a" d="M3195,3131h56" transform="translate(-2539 -2535)"/><path class="a" d="M3195,3131h56" transform="translate(-2539 -2527)"/></g><text class="b" transform="translate(649 557)"><tspan x="0" y="0">LP</tspan></text><path class="c" d="M3163,3019h112v136H3163Z" transform="translate(-2544 -2516)"/><path class="d" d="M3171,3078.832h112V3027H3171Z" transform="translate(-2552 -2511.832)"/><g class="a" transform="translate(663 583)"><circle class="g" cx="12.5" cy="12.5" r="12.5"/><circle class="i" cx="12.5" cy="12.5" r="12"/></g><g class="e" transform="translate(633 571)"><rect class="g" width="84" height="8"/><rect class="i" x="0.5" y="0.5" width="83" height="7"/></g><g class="a" transform="translate(692 583)"><circle class="g" cx="12.5" cy="12.5" r="12.5"/><circle class="i" cx="12.5" cy="12.5" r="12"/></g><g class="a" transform="translate(633 583)"><circle class="g" cx="12.5" cy="12.5" r="12.5"/><circle class="i" cx="12.5" cy="12.5" r="12"/></g><rect class="f" width="110" height="6" transform="translate(619 506)"/></g></svg>