<svg xmlns="http://www.w3.org/2000/svg" width="110" height="110" viewBox="0 0 110 110"><defs><style>.a{fill:#f8f8f8;stroke:#1e1e1e;stroke-width:3px;}.b,.c{fill:#fff;}.b{stroke:#707070;}.d{fill:#434343;}.e{fill:none;}.f{stroke:none;}</style></defs><g transform="translate(-362 -212)"><g class="a" transform="translate(362 212)"><circle class="f" cx="55" cy="55" r="55"/><circle class="e" cx="55" cy="55" r="53.5"/></g><path class="b" d="M4350,4662v72h64v-72h-64" transform="translate(-3966 -4430)"/><path class="c" d="M4358,4670v8h48v-8Z" transform="translate(-3966 -4430)"/><path class="b" d="M4358,4686h48" transform="translate(-3966 -4406)"/><path class="b" d="M4358,4686h48" transform="translate(-3966 -4414)"/><path class="b" d="M4358,4686h48" transform="translate(-3966 -4422)"/><path class="b" d="M4358,4686h48" transform="translate(-3966 -4430)"/><rect class="d" width="48" height="8" transform="translate(392 240)"/><g transform="translate(967.719 275.921) rotate(133)"><path class="d" d="M4342,4790v37.5l2.52,4.928,2.48-4.928V4790h-5Z" transform="translate(-3966 -4430)"/><path class="e" d="M4342,4827.229h5.1" transform="translate(-3966 -4430)"/></g></g></svg>