<svg xmlns="http://www.w3.org/2000/svg" width="22" height="17.879" viewBox="0 0 22 17.879"><path d="M22,2.938a9.025,9.025,0,0,1-2.592.711,4.527,4.527,0,0,0,1.985-2.5,9.039,9.039,0,0,1-2.866,1.1,4.518,4.518,0,0,0-7.691,4.117,12.814,12.814,0,0,1-9.3-4.716,4.518,4.518,0,0,0,1.4,6.026A4.5,4.5,0,0,1,.884,7.11c0,.019,0,.038,0,.057A4.516,4.516,0,0,0,4.5,11.592a4.524,4.524,0,0,1-2.038.077A4.518,4.518,0,0,0,6.682,14.8a9.056,9.056,0,0,1-5.606,1.932A9.182,9.182,0,0,1,0,16.673,12.775,12.775,0,0,0,6.919,18.7,12.754,12.754,0,0,0,19.761,5.859q0-.294-.013-.584A9.174,9.174,0,0,0,22,2.938" transform="translate(0 -0.822)"/></svg>